<svg xmlns="http://www.w3.org/2000/svg" viewBox="0 0 512 512" role="img" aria-label="Icona Dito">
  <defs>
    <linearGradient id="bg" x1="0" y1="0" x2="1" y2="1">
      <stop offset="0%" stop-color="#06141f"/>
      <stop offset="100%" stop-color="#03111b"/>
    </linearGradient>
    <linearGradient id="finger" x1="0" y1="0" x2="0" y2="1">
      <stop offset="0%" stop-color="#d6f9ff"/>
      <stop offset="100%" stop-color="#89e9ff"/>
    </linearGradient>
    <filter id="glow" x="-50%" y="-50%" width="200%" height="200%">
      <feGaussianBlur stdDeviation="7" result="blur"/>
      <feMerge>
        <feMergeNode in="blur"/>
        <feMergeNode in="SourceGraphic"/>
      </feMerge>
    </filter>
  </defs>

  <rect width="512" height="512" rx="108" fill="url(#bg)"/>
  <circle cx="256" cy="100" r="54" fill="rgba(0,255,255,0.16)" filter="url(#glow)"/>

  <g stroke="#00dfff" stroke-width="14" stroke-linecap="round" stroke-linejoin="round" filter="url(#glow)">
    <path d="M256 66c-24 0-43 19-43 43v153h-17c-36 0-66 30-66 66v32c0 52 42 94 94 94h64c52 0 94-42 94-94v-26c0-40-33-73-73-73h-10V109c0-24-19-43-43-43z" fill="url(#finger)"/>
    <path d="M188 306c12 0 22 10 22 22" fill="none"/>
    <path d="M312 306c-12 0-22 10-22 22" fill="none"/>
  </g>

  <circle cx="356" cy="130" r="12" fill="#00ffff"/>
  <circle cx="386" cy="160" r="7" fill="#a4ffff"/>
</svg>
